<svg xmlns="http://www.w3.org/2000/svg" width="3300" height="830"><path fill="#ed1c24" d="M575.387 789.498c-52.568-8.124-105.83-26.006-151.5-50.276 45.803-2.258 96.333-4.773 131.67-38.356 36.338-24.458 33.31-92.352-19.2-90.223-58.667-3.997-112.65 28.327-171.545 23.828-33.03 7.12-105.09-14.22-97.084-41.95 44.212-4.89 94.105-42.76 80.85-92.15-11.457-53.72-71.445-103.03-127.203-84.83-35.958 22.67-57.743 72.22-105.71 73.57-39.48 3.35-69-26.89-95.07-52.2 33.41 3 70.556 9.58 101.412-6.44 44.914-29.73 25.057-87.95 34.165-132.22 14.316-54.96 80.433-39.64 115.574-16.36 44.114 18.94 77.678 64.6 128.37 65.41 50.532-1.88 72.24-58.89 64.338-102.39-2.052-44.61-40.867-81.9-85.83-80.73-25.593-8.23-96.06 29.78-63.666-18.61 15.442-38.9 50.562-77.76 96.473-69.83 67.58 5.74 122.73 68.51 193.33 53.03 60.2-20.223 6.42-71.02-28.78-82.85-14.25-6.75-53.44-25.13-12.65-23.283 96.23-16.07 195.76 30.88 249.34 111.4 79.51 116.094 95.92 267.1 68.23 402.77-20.68 102.01-81.96 205.723-184.25 241.9-38.92 13.386-80.66 13.26-121.25 10.82z"/><path fill="#ffbe00" fill-rule="evenodd" d="M403.822 371.17v17.402H892.82c-.25-5.807-.59-11.608-1.015-17.403H403.822z" style="line-height:normal;text-indent:0;text-align:start;text-decoration-line:none;text-decoration-style:solid;text-decoration-color:#000000;text-transform:none;block-progression:tb;isolation:auto;mix-blend-mode:normal" color="#000" font-family="sans-serif" white-space="normal" overflow="visible" solid-color="#000000"/><path fill="#ffbe00" fill-rule="evenodd" d="M551.51 263.582l-12.31 12.304 66.978 66.978H737.73l74.244 128.592h78.66c.55-5.787 1-11.593 1.387-17.403h-69.99L747.78 325.46H613.39l-61.88-61.878z" style="line-height:normal;text-indent:0;text-align:start;text-decoration-line:none;text-decoration-style:solid;text-decoration-color:#000000;text-transform:none;block-progression:tb;isolation:auto;mix-blend-mode:normal" color="#000" font-family="sans-serif" white-space="normal" overflow="visible" solid-color="#000000"/><path fill="#ffbe00" fill-rule="evenodd" d="M623.764 408.84l-78.53 78.53 12.304 12.31 73.43-73.43h262.265c.12-5.802.172-11.606.122-17.41h-269.59zm30.066-178.42v76.236h108.427l23.62 36.71h103.2c-.723-5.82-1.538-11.624-2.446-17.41h-91.25l-23.62-36.703H671.24V230.42h-17.41z" style="line-height:normal;text-indent:0;text-align:start;text-decoration-line:none;text-decoration-style:solid;text-decoration-color:#000000;text-transform:none;block-progression:tb;isolation:auto;mix-blend-mode:normal" color="#000" font-family="sans-serif" white-space="normal" overflow="visible" solid-color="#000000"/><path fill="#ffbe00" fill-rule="evenodd" d="M501.78 439.975v17.403h246.602l28.427 49.243h109.43c.88-5.78 1.69-11.58 2.41-17.4h-101.8l-28.43-49.24H501.78zm40.278-273.6v66.396l75.388 75.39 12.304-12.3-70.29-70.29v-59.19h-17.4zm-72.944 142.61l-8.702 15.074 35.6 20.55 69.658 1.25.32-17.41-65.165-1.17-31.71-18.31zm-107.987 98.602v17.403h212.236v-17.403H361.127z" style="line-height:normal;text-indent:0;text-align:start;text-decoration-line:none;text-decoration-style:solid;text-decoration-color:#000000;text-transform:none;block-progression:tb;isolation:auto;mix-blend-mode:normal" color="#000" font-family="sans-serif" white-space="normal" overflow="visible" solid-color="#000000"/><path fill="#ffbe00" fill-rule="evenodd" d="M633.955 482.94l-43.25 40.814H455.313v17.403h142.313l43.243-40.813h109.57V482.94H633.95zm51.343 35.16l-64.717 64.716 12.32 12.304 59.62-59.61h188.62c1.17-5.775 2.23-11.585 3.24-17.41H685.3z" style="line-height:normal;text-indent:0;text-align:start;text-decoration-line:none;text-decoration-style:solid;text-decoration-color:#000000;text-transform:none;block-progression:tb;isolation:auto;mix-blend-mode:normal" color="#000" font-family="sans-serif" white-space="normal" overflow="visible" solid-color="#000000"/><path fill="#ffbe00" d="M534.433 248.633c.908 24.375-39.308 25.707-40.137 1.377-2.635-23.953 36.655-28.42 39.845-4.685l.25 1.93.05 1.378zM529.41 491.64c.908 24.375-39.31 25.707-40.137 1.377-2.635-23.953 36.655-28.42 39.844-4.685l.242 1.932.05 1.377zm-126.84-38.93c.907 24.374-39.31 25.706-40.138 1.376-2.635-23.953 36.655-28.42 39.844-4.685l.243 1.94.05 1.38zm329.032 114.282c.908 24.374-39.31 25.706-40.137 1.377-2.635-23.96 36.655-28.43 39.845-4.69l.242 1.93.05 1.37zm-109.26 42.698c.91 24.375-39.31 25.707-40.136 1.378-2.635-23.954 36.655-28.42 39.844-4.686l.242 1.932.05 1.377zm101.725-352.894c.908 24.375-39.31 25.707-40.137 1.377-2.635-23.953 36.655-28.42 39.844-4.685l.242 1.93.05 1.378zM855.93 378.614c.91 24.374-39.307 25.706-40.136 1.377-2.635-23.95 36.655-28.42 39.845-4.68l.24 1.93.05 1.38z"/><path fill="none" d="M343.278 133.673h563.864V681.78H343.278z"/><g font-family="Century Gothic" letter-spacing="0" word-spacing="0"><path fill="#0c4da2" d="M1049.616 257.16v135.45q18.56-18.56 40.132-27.842 21.572-9.28 46.153-9.28 53.43 0 90.8 40.383 37.38 40.39 37.38 103.6 0 60.95-38.63 102.09-38.63 40.89-91.55 40.89-23.58 0-43.89-8.27-20.31-8.52-40.38-27.59v28.85h-67.98V257.16h67.98zm71.988 161.535q-32.357 0-53.678 22.073-21.32 22.073-21.32 57.69 0 36.37 21.32 58.945 21.32 22.324 53.678 22.324 31.353 0 52.674-22.826 21.57-22.82 21.57-58.19 0-35.11-21.07-57.44-21.068-22.57-53.174-22.57zm400.826-56.185h68.224v272.9h-68.225v-28.844q-20.07 19.063-40.39 27.59-20.07 8.278-43.65 8.278-52.93 0-91.56-40.885-38.63-41.14-38.63-102.09 0-63.21 37.37-103.6 37.37-40.39 90.8-40.39 24.58 0 46.15 9.28t39.88 27.84v-30.1zm-71.99 56.185q-31.855 0-52.924 22.574-21.07 22.32-21.07 57.44 0 35.36 21.32 58.19 21.572 22.82 52.925 22.82 32.36 0 53.68-22.33 21.32-22.58 21.32-58.95 0-35.62-21.32-57.69t-53.93-22.08zm194.393-56.185h58.694v34.363q9.532-20.318 25.334-30.852 15.81-10.53 34.62-10.53 13.3 0 27.84 7.03L1770 421.46q-12.04-6.02-19.813-6.02-15.8 0-26.837 19.565-10.787 19.566-10.787 76.75l.25 13.3v110.36h-67.974v-272.9z" style="line-height:125%;-inkscape-font-specification:'Century Gothic Bold'" font-weight="bold"/><path fill="#ed1c24" d="M2094.82 419.196l-27.84 17.308q-36.12-47.91-98.577-47.91-49.915 0-83.025 32.107-32.858 32.11-32.858 78.01 0 29.85 15.05 56.19 15.3 26.34 41.637 40.89 26.588 14.55 59.447 14.55 60.2 0 98.325-47.91l27.84 18.31q-19.57 29.35-52.68 45.65-32.86 16.06-75 16.06-64.72 0-107.36-41.13t-42.64-100.08q0-39.63 19.81-73.49 20.06-34.11 54.93-53.17 34.86-19.06 78-19.06 27.09 0 52.17 8.28 25.33 8.278 42.89 21.57 17.55 13.296 29.85 33.864zm339.122-56.686v272.9h-34.615v-46.904q-22.073 26.84-49.664 40.383-27.34 13.54-59.948 13.54-57.942 0-99.078-41.89-40.885-42.14-40.885-102.34 0-58.95 41.387-100.83 41.38-41.89 99.57-41.89 33.61 0 60.7 14.29 27.34 14.29 47.91 42.89V362.5h34.61zm-140.465 26.838q-29.347 0-54.18 14.548-24.83 14.297-39.63 40.383-14.548 26.08-14.548 55.18 0 28.84 14.79 55.18 14.8 26.33 39.63 41.13 25.08 14.54 53.68 14.54 28.84 0 54.68-14.55 25.83-14.55 39.63-39.38 14.04-24.84 14.04-55.94 0-47.41-31.36-79.26-31.11-31.86-76.76-31.86zm219.476-26.838h34.865v47.155q18.31-26.086 37.624-38.126 26.588-16.06 55.935-16.06 19.816 0 37.625 7.77 17.81 7.77 29.096 20.82 11.287 12.79 19.565 36.87 17.558-32.11 43.895-48.66 26.337-16.81 56.687-16.81 28.344 0 49.915 14.29 21.822 14.29 32.357 39.88 10.535 25.58 10.535 76.75v149h-35.87V486.42q0-43.897-6.27-60.2-6.27-16.555-21.57-26.588-15.05-10.034-36.12-10.034-25.585 0-46.905 15.05-21.07 15.05-30.852 40.133-9.783 25.09-9.783 83.78v106.85h-34.865V495.7q0-49.414-6.27-66.972-6.02-17.81-21.32-28.344-15.302-10.786-36.37-10.786-24.332 0-45.652 14.8-21.07 14.547-31.354 39.38-10.03 24.832-10.03 76V635.41h-34.86v-272.9zm482.344 0h34.865v50.165q20.82-28.595 47.91-42.892 27.088-14.297 60.45-14.297 58.19 0 99.578 41.888 41.387 41.89 41.387 100.833 0 60.2-41.136 102.34-40.88 41.887-98.82 41.887-32.61 0-59.95-13.545-27.34-13.55-49.41-40.39v146.74h-34.87V362.51zm140.464 26.838q-45.65 0-77 31.855-31.1 31.855-31.1 79.262 0 31.103 13.8 55.935 14.05 24.832 39.89 39.38 26.09 14.548 54.93 14.548 28.35 0 53.18-14.548 25.08-14.8 39.88-41.136 14.8-26.337 14.8-55.182 0-29.097-14.8-55.183-14.54-26.09-39.38-40.39-24.83-14.55-54.18-14.55z" style="line-height:125%;-inkscape-font-specification:'Century Gothic'"/></g><path fill="#0c4da2" d="M2476.493 188.354l-8.918 6.843q-7.38-9.61-17.76-14.53-10.302-4.998-22.68-4.998-13.53 0-25.063 6.53-11.532 6.46-17.913 17.45-6.31 10.91-6.31 24.6 0 20.68 14.14 34.52 14.22 13.84 35.82 13.84 23.75 0 39.74-18.61l8.92 6.76q-8.46 10.76-21.15 16.68-12.61 5.84-28.22 5.84-29.676 0-46.82-19.76-14.377-16.69-14.377-40.29 0-24.84 17.373-41.75 17.45-16.99 43.67-16.99 15.836 0 28.6 6.3 12.76 6.23 20.91 17.53zm13.993-20.988h13.07l28.907 46.59 28.446-46.59h13.07l-35.83 59.045v54.05H2527v-54.05l-36.52-59.04zm102.098 0h22.296q13.454 0 20.68 3.23 7.228 3.15 11.38 9.763 4.228 6.61 4.228 14.68 0 7.53-3.69 13.76-3.69 6.15-10.84 9.99 8.84 3 13.607 7.07 4.767 3.99 7.38 9.76 2.692 5.69 2.692 12.38 0 13.61-9.995 23.06-9.917 9.38-26.678 9.38h-31.06V167.36zm11.07 11.07v36.212h6.46q11.762 0 17.298-2.153 5.535-2.23 8.764-6.92 3.23-4.766 3.23-10.532 0-7.765-5.46-12.147-5.38-4.46-17.22-4.46h-13.07zm0 47.59v43.36h13.994q12.378 0 18.144-2.382 5.766-2.46 9.226-7.61 3.536-5.152 3.536-11.15 0-7.533-4.92-13.146-4.92-5.612-13.53-7.688-5.767-1.384-20.067-1.384h-6.382zm79.112-58.66h64.81v11.148h-53.508v35.365h53.048v11.07h-53.048v44.36h53.048v11.14h-64.35V167.36zm85.108 0h22.526q18.836 0 25.525 1.537 10.07 2.307 16.376 9.918 6.31 7.54 6.31 18.61 0 9.23-4.38 16.22-4.3 7-12.38 10.61-8.07 3.54-22.29 3.62l40.67 52.59h-13.99l-40.59-52.58h-6.46v52.59h-11.3v-113.1zm11.302 11.07v38.44l19.45.155q11.302 0 16.684-2.15 5.46-2.15 8.457-6.84 3.075-4.76 3.075-10.61 0-5.69-3.075-10.3-3.075-4.69-8.073-6.69-4.997-2-16.606-2h-19.912zm120.704-11.07h11.378v76.343q0 17.6-2.768 24.52-2.69 6.84-9.072 10.99-6.38 4.07-15.453 4.07-6.842 0-13.53-2.69-6.613-2.62-14.685-9.31l5.996-9q8.842 6.23 14.685 8.76 3.85 1.69 7.54 1.69 4.85 0 8.77-2.92 4-2.93 5.54-7.77 1.62-4.84 1.62-18.76v-75.95zm85.184 0l52.74 113.092h-12.146l-17.76-37.21h-48.743l-17.683 37.21h-12.608l53.432-113.092h2.768zm-1.384 23.987l-19.45 40.978h38.67l-19.22-40.97zm62.812-23.987h13.07l28.908 46.59 28.446-46.59h13.07l-35.827 59.045v54.05h-11.15v-54.05l-36.52-59.04zm147.998 0l52.74 113.092h-12.147l-17.76-37.21h-48.743l-17.682 37.21h-12.61l53.434-113.092h2.767zm-1.384 23.987l-19.452 40.978h38.672l-19.22-40.97z" style="line-height:125%;-inkscape-font-specification:'Century Gothic'" font-family="Century Gothic" letter-spacing="0" word-spacing="0"/></svg>